<svg width="755" height="535" viewBox="0 0 755 535" fill="none" xmlns="http://www.w3.org/2000/svg">
<g clip-path="url(#clip0_31_44)">
<path d="M275.333 307.592C269.469 309.688 268.199 317.417 273.333 319.757C278.053 321.908 277.696 326.903 272.475 331.783C268.449 335.545 268.388 335.757 270.94 337.123C272.987 338.217 274.653 337.98 278.176 336.092C282.632 333.704 282.836 333.705 285.857 336.153C289.295 338.936 291.068 339.216 293.901 337.423C295.445 336.445 295.008 335.315 291.568 331.397C286.461 325.581 286.281 323.417 290.667 320.544C297.757 315.899 292.284 306.577 282.581 306.772C279.695 306.829 276.433 307.199 275.333 307.592Z" fill="#424242" stroke="#424242" stroke-width="1.33333"/>
<path d="M474 331.171C474 332.913 474.9 335.087 476 336C479.06 338.54 478.419 340.369 473.229 343.904C469.151 346.681 468.859 347.199 471.171 347.552C472.653 347.777 474.231 347.371 474.679 346.648C475.865 344.728 480.232 345.04 484.733 347.368C489.827 350.001 489.721 348.548 484.42 343.079L480.173 338.697L483.255 335.416C487.569 330.824 486.092 328 479.375 328C474.604 328 474 328.356 474 331.171Z" fill="#424242" stroke="#424242" stroke-width="1.33333"/>
<path d="M253.476 288.776C250.473 296.601 255.249 303.863 261.52 301.005C268.528 297.813 265.879 286.667 258.112 286.667C255.852 286.667 253.953 287.531 253.476 288.776Z" fill="#424242" stroke="#424242" stroke-width="1.33333"/>
<path d="M301.667 288.075C298.741 289.819 298.6 296.409 301.428 299.239C304.483 302.293 308.296 301.804 310.761 298.043C315.251 291.192 308.623 283.929 301.667 288.075Z" fill="#424242" stroke="#424242" stroke-width="1.33333"/>
<path d="M494.028 318.597C491.913 323.704 493.904 326.667 499.449 326.667C507.08 326.667 506.812 315.827 499.16 314.929C496.399 314.607 495.38 315.335 494.028 318.597Z" fill="#424242" stroke="#424242" stroke-width="1.33333"/>
<path d="M456.933 316.267C453.288 319.912 455.632 326.667 460.543 326.667C464.927 326.667 467.333 324.463 467.333 320.447C467.333 315.715 460.308 312.892 456.933 316.267Z" fill="#424242" stroke="#424242" stroke-width="1.33333"/>
<path d="M502.444 340.931C502.444 342.872 508.099 343.331 509.241 341.483C509.644 340.832 508.279 340.051 506.208 339.747C503.723 339.381 502.444 339.784 502.444 340.931Z" fill="#D2D2D2" stroke="#D2D2D2" stroke-width="1.33333"/>
<path d="M594.667 472.749L599.333 467.923L604 463.097" stroke="#848484" stroke-width="1.33333"/>
<path d="M508 288.752L512 284.58L516 280.407" stroke="#848484" stroke-width="1.33333"/>
<path d="M440.136 336.219C440.515 336.832 442.739 337.264 445.079 337.18L449.333 337.027L444.391 336.065C441.671 335.537 439.757 335.607 440.136 336.219Z" fill="#D2D2D2" stroke="#D2D2D2" stroke-width="1.33333"/>
<path d="M658.667 403.421L662 399.899L665.333 396.376" stroke="#848484" stroke-width="1.33333"/>
<path d="M554.667 380.755L558 377.232L561.333 373.709" stroke="#848484" stroke-width="1.33333"/>
<path d="M358.575 37.6827C347.625 45.8027 328.467 60.0414 316 69.324C303.533 78.608 276.833 98.4227 256.667 113.36C226.251 135.887 92.8292 235.612 86.0226 240.907C84.2759 242.265 84.6372 243.145 88.6666 247.359C91.2332 250.043 96.7719 255.233 100.975 258.896L108.616 265.553L118.808 258.111C124.415 254.016 129.525 250.667 130.167 250.667C130.824 250.667 131.333 301.015 131.333 366V481.333H122.841H114.349L113.644 467.667C112.045 436.735 99.2986 409.364 79.3426 394.007C65.2466 383.161 48.8346 376.752 24.9999 372.788C20.6812 372.069 20.6666 372.085 20.6706 377.7C20.6826 395.157 26.5106 422.123 33.4372 436.765C39.2092 448.965 49.6292 463.703 58.8332 472.683L67.6986 481.333H40.1359H12.5732L12.9532 495L13.3332 508.667L377 509.003L740.667 509.339V495.336V481.333H710.356H680.045L687.123 475.143C709.113 455.905 723.164 424.639 725.963 388.713C726.645 379.939 727.084 372.648 726.936 372.509C726.788 372.372 721.567 373.143 715.333 374.221C667.376 382.529 637.245 417.085 634.412 467.029L633.597 481.393L610.476 481.029L587.355 480.667L596.475 470.667C607.052 459.069 610 453.987 610 447.347C610 436.179 602.331 428.515 585.291 422.652C573.015 418.428 567.333 411.639 567.333 401.192C567.333 397.3 568.329 394.279 570.592 391.313C581.588 376.897 605.852 381.408 612.587 399.121C615.159 405.888 625.999 405.017 628.733 397.824C631.873 389.567 622.925 377.187 608.923 370.413C601.037 366.599 598.681 366.093 588.667 366.067C579.599 366.041 575.944 366.66 570.381 369.161C562.692 372.619 551.931 383.153 550.576 388.552C550.1 390.448 549.325 391.989 548.856 391.977C548.385 391.965 546.547 388.515 544.769 384.311C542.993 380.107 538.733 372.04 535.305 366.384L529.071 356.101L532.885 348.384C538.687 336.648 539.977 326.807 537.311 314.657C535.909 308.272 535.185 299.343 535.307 289.912C535.563 269.956 531.649 254.651 526.299 254.679C522.705 254.699 511.335 261.727 503.504 268.767L496.381 275.171L479.857 275.252C470.769 275.297 463.183 274.969 463 274.524C462.024 272.152 446.341 259.828 441.263 257.44C432.844 253.483 431.555 253.839 428.344 261C426.016 266.193 425.332 271.172 424.545 288.667C424.019 300.4 422.913 313 422.091 316.667C420.009 325.939 422.272 339.635 427.508 349.46L431.585 357.109L426.351 364.888C407.236 393.292 400.652 440.288 411.407 471.548C412.833 475.693 414 479.591 414 480.209C414 480.827 398.4 481.333 379.333 481.333C360.267 481.333 344.667 480.971 344.667 480.528C344.667 480.085 346.244 474.664 348.172 468.481C351.356 458.271 351.539 456.537 350.173 449.619C349.347 445.428 346.545 425.8 343.948 406C341.352 386.2 337.721 359.132 335.88 345.849L332.533 321.7L339.315 309.183C353.587 282.843 364.813 259.615 363.761 258.6C359.604 254.591 319.811 228 317.967 228C316.703 228 313.117 228.9 310 230C301.687 232.933 262.212 232.819 253.46 229.837C248.867 228.272 246.312 228.041 244.221 229.001C241.129 230.423 212.251 250.324 204.729 256.217L200.199 259.768L203.963 268.217C208.084 277.464 224.481 308.313 229.511 316.28C231.247 319.031 232.667 321.837 232.667 322.517C232.667 324.835 207 412.532 199.797 434.824C197.821 440.94 197.853 441.117 204.436 461.157L211.064 481.333H187.865H164.667V352.22V223.107L186.333 207.604C198.251 199.079 218.2 184.533 230.667 175.284C273.045 143.839 281.317 137.74 312 115.312C328.867 102.984 350.604 86.9174 360.305 79.6107C377.164 66.9134 378.079 66.412 380.972 68.3094C382.637 69.4014 398.1 80.9974 415.333 94.0774C457.621 126.175 487.639 148.668 490.911 150.712C493.323 152.219 495.093 151.355 507.472 142.636C515.096 137.267 522.121 131.927 523.085 130.771C524.268 129.352 524.703 125.628 524.423 119.333L524.007 110L535.669 109.615L547.333 109.229L547.34 150.948L547.347 192.667L563.543 204.667C572.451 211.267 582.348 218.388 585.536 220.491L591.333 224.316V286.132V347.949L595 348.76C601.913 350.288 612.003 353.7 616.947 356.183C619.668 357.549 622.217 358.667 622.613 358.667C623.009 358.667 623.333 334.367 623.333 304.667C623.333 274.967 623.692 250.667 624.131 250.667C624.568 250.667 629.701 254.031 635.535 258.143C644.981 264.8 646.391 265.409 648.404 263.72C660.292 253.748 671.135 243.424 670.611 242.576C670.256 242.001 648.673 225.457 622.649 205.809L575.333 170.087V125.916C575.333 84.8187 575.164 81.5934 572.895 79.54C570.763 77.6107 566.265 77.3334 537.059 77.3334C508.043 77.3334 503.427 77.6134 501.885 79.4707C500.697 80.9027 499.931 87.0374 499.565 98.044L499.017 114.48L454.176 80.5974C429.512 61.9627 402.392 41.3614 393.908 34.8174L378.483 22.9187L358.575 37.6827ZM251.333 358.001C257.104 360.881 279.712 369.777 281.259 369.777C282.072 369.777 290.752 366.621 300.547 362.764C318.32 355.764 320.549 355.532 320.652 360.667C320.668 361.4 323.372 383 326.661 408.667C329.952 434.333 332.649 457.228 332.656 459.543C332.661 461.857 330.892 467.708 328.723 472.543L324.779 481.333H314.723C309.192 481.333 304.667 481.059 304.667 480.724C304.667 480.389 307.351 467.073 310.632 451.133C313.913 435.195 316.463 422.031 316.299 421.88C316.135 421.731 312.024 423.496 307.164 425.804C298.483 429.927 298.3 430.121 296.753 436.919C295.887 440.724 294.096 445.224 292.773 446.919C291.067 449.104 289.88 454.553 288.691 465.667L287.015 481.333H279.264C270.096 481.333 270.557 482.192 269.265 462.725C268.553 452.012 267.737 447.968 265.737 445.263C264.305 443.327 262.8 439.248 262.391 436.2C261.692 430.984 261.148 430.392 253.157 426.149C247.013 422.887 244.667 422.168 244.667 423.547C244.667 424.593 246.467 437.496 248.667 452.219C250.867 466.94 252.667 479.513 252.667 480.159C252.667 480.805 247.699 481.333 241.625 481.333H230.584L228.893 477C227.964 474.617 224.756 465.603 221.767 456.968L216.329 441.271L220.371 428.301C223.909 416.947 228.745 400.605 239.32 364.268C242.396 353.699 242.549 353.617 251.333 358.001ZM454.131 373.091C471.877 381.773 489.108 381.641 506.636 372.687L515.939 367.935L518.241 370.967C522.12 376.075 528.165 389.415 532.004 401.333C534.909 410.356 535.792 416.099 536.331 429.5C537.108 448.807 535.016 461.187 528.925 473.333L525.248 480.667L515.533 481.06L505.819 481.453L506.524 475.727C506.912 472.577 507.592 460.975 508.033 449.944L508.839 429.887L500.419 426.931C495.788 425.304 491.551 423.979 491 423.987C490.451 423.993 490 427.804 490 432.455C490 437.105 489.607 450.005 489.125 461.121L488.251 481.333H480.66H473.069L472.208 468.333C471.735 461.184 471.344 447.919 471.34 438.857C471.333 423.699 471.147 422.456 469 423.32C467.717 423.836 463.427 425.519 459.467 427.057L452.267 429.856L453.176 451.928C453.676 464.068 454.441 475.677 454.876 477.728L455.668 481.457L445.872 481.061L436.076 480.667L432.384 473.333C423.568 455.823 421.604 431.504 427.164 408.729C429.903 397.511 442.868 367.42 444.559 368.357C444.985 368.593 449.292 370.724 454.131 373.091ZM281.669 247.656C303.525 247.951 314.899 247.613 316.759 246.617C319.151 245.337 321.175 246.393 332.156 254.647C346.733 265.604 346.383 263.355 336.527 282.667L330.063 295.333L330.032 288.451C329.967 274.332 324.652 254.667 320.901 254.667C320.331 254.667 318.668 257.217 317.207 260.333C314.789 265.484 314.7 266.728 316.213 274C317.129 278.4 318.453 288 319.155 295.333C320.341 307.757 320.239 308.985 317.633 313.333C315.409 317.047 314.821 320.305 314.753 329.285L314.667 340.571L299.333 346.844C290.9 350.295 283.288 353.167 282.419 353.225C281.549 353.285 273.536 350.249 264.612 346.481L248.388 339.629L249.3 329.899C250.141 320.919 249.94 319.707 246.688 314.157L243.165 308.145L245.328 292.405C246.517 283.749 248.107 274.195 248.86 271.172C250.027 266.491 249.815 264.863 247.421 260.172C245.876 257.144 244.039 254.667 243.337 254.667C240.349 254.667 238.029 261.668 236.088 276.547C234.949 285.281 233.824 292.62 233.589 292.856C232.916 293.529 220.512 265.121 220.945 263.899C221.159 263.297 226.433 258.912 232.667 254.155C241.087 247.727 244.685 245.724 246.667 246.363C248.133 246.836 263.884 247.417 281.669 247.656ZM454.176 291.801C457.512 296.14 457.724 296.212 461.472 294.297C471.919 288.96 484.968 288.872 497.297 294.057C502.528 296.256 502.62 296.245 504.6 293.143C505.703 291.415 510.059 286.4 514.277 282L521.949 274L521.975 285.125C521.997 295.299 521.761 296.312 519.213 296.979C516.156 297.777 516.237 299.313 519.833 308.667C521.865 313.955 522.745 331.171 521.191 335.224C520.592 336.783 518.524 337.333 513.269 337.333C509.357 337.333 505.787 337.933 505.333 338.667C504.88 339.4 505.696 340 507.145 340C508.596 340 510.881 340.451 512.224 341C513.869 341.673 512.157 342.217 506.975 342.667C497.952 343.448 496.863 345.593 504.792 346.961C507.859 347.491 510.732 348.287 511.176 348.731C511.62 349.175 509.887 351.277 507.325 353.401C491.579 366.459 471.468 367.177 455.237 355.263C451.624 352.611 448.667 349.96 448.667 349.375C448.667 348.125 453.397 346.711 457.667 346.685C459.436 346.675 460.667 345.847 460.667 344.667C460.667 343.08 458.667 342.649 451 342.583C443.137 342.513 441.956 342.247 444.667 341.155C446.5 340.416 449.951 340.033 452.333 340.304C454.717 340.576 456.667 340.383 456.667 339.875C456.667 338.319 452.737 337.333 446.524 337.333C441.293 337.333 440.436 336.904 439.188 333.667C436.987 327.953 438.373 312.233 441.687 305.333L444.568 299.333L441.284 296.616C438.324 294.168 438.003 292.917 438.029 283.949L438.057 274L444.399 280.667C447.887 284.333 452.287 289.344 454.176 291.801ZM49.7452 397.332C77.7132 410.025 95.2279 437.829 95.3106 469.664L95.3332 478.663L88.3332 473.739C84.4839 471.031 76.2132 463.683 69.9546 457.408C56.2732 443.689 47.9159 428.773 43.3946 410C41.8052 403.4 40.2599 397.251 39.9612 396.333C39.1759 393.928 43.1332 394.332 49.7452 397.332ZM707.313 396.333C707.235 403.009 700.411 424.713 695.148 435.031C688.6 447.864 674.528 462.969 658.144 474.748L652.288 478.957L652.997 466.479C654.781 435.121 672.069 408.451 697.333 398.08C706.693 394.239 707.34 394.125 707.313 396.333ZM571.048 436.035C586.86 443.375 589.083 444.624 590.535 446.979C591.737 448.929 589.628 451.577 576.98 463.987C568.741 472.071 562 479.28 562 480.008C562 480.739 558.409 481.333 554 481.333C549.6 481.333 546 481.056 546 480.716C546 480.376 547.172 477.127 548.604 473.493C553.075 462.151 555.703 446 555.063 433.803L554.476 422.637L558.285 427.259C560.509 429.956 565.821 433.609 571.048 436.035Z" fill="#424242" stroke="#424242" stroke-width="1.33333"/>
</g>
<defs>
<clipPath id="clip0_31_44">
<rect width="755" height="535" fill="white"/>
</clipPath>
</defs>
</svg>
